<?xml version="1.0" standalone="no"?>
<!DOCTYPE svg PUBLIC "-//W3C//DTD SVG 20010904//EN"
 "http://www.w3.org/TR/2001/REC-SVG-20010904/DTD/svg10.dtd">
<svg version="1.0" xmlns="http://www.w3.org/2000/svg"
 width="512.000000pt" height="512.000000pt" viewBox="0 0 512.000000 512.000000"
 preserveAspectRatio="xMidYMid meet">
<metadata>
Created by potrace 1.11, written by Peter Selinger 2001-2013
</metadata>
<g transform="translate(0.000000,512.000000) scale(0.100000,-0.100000)"
fill="#000000" stroke="none">
<path d="M649 4689 c-5 -3 -8 -868 -7 -2134 l3 -2129 565 1 c572 1 625 3 715
23 328 73 595 281 741 581 36 73 81 210 89 267 3 20 7 51 11 67 3 17 6 193 7
393 0 215 5 366 10 369 6 3 134 7 286 8 152 1 287 5 301 8 14 4 41 9 60 11 19
3 62 13 95 22 33 9 70 19 83 21 12 3 25 9 28 14 3 5 11 9 19 9 7 0 47 15 87
34 262 121 511 375 628 641 43 100 87 252 98 345 13 104 6 331 -12 419 -44
215 -145 425 -278 578 -42 49 -180 183 -189 183 -3 0 -19 11 -35 25 -37 32
-163 107 -229 135 -131 57 -272 94 -403 107 -84 7 -2661 10 -2673 2z"/>
</g>
</svg>
