<?xml version="1.0" standalone="no"?>
<!DOCTYPE svg PUBLIC "-//W3C//DTD SVG 20010904//EN"
 "http://www.w3.org/TR/2001/REC-SVG-20010904/DTD/svg10.dtd">
<svg version="1.0" xmlns="http://www.w3.org/2000/svg"
 width="700.000000pt" height="700.000000pt" viewBox="0 0 700.000000 700.000000"
 preserveAspectRatio="xMidYMid meet">
<metadata>
Created by potrace 1.11, written by Peter Selinger 2001-2013
</metadata>
<g transform="translate(0.000000,700.000000) scale(0.100000,-0.100000)"
fill="#000000" stroke="none">
<path d="M877 6115 c-2 -5 -3 -1252 -3 -2770 l1 -2760 1800 0 c990 0 1838 4
1885 7 295 25 579 115 825 261 513 306 788 802 731 1322 -45 412 -295 784
-696 1036 -205 129 -490 233 -726 265 -27 3 -58 9 -69 12 -11 3 -267 7 -570 9
-302 3 -551 6 -552 7 -2 1 -3 385 -4 852 -1 647 -4 866 -14 921 -67 371 -322
670 -678 793 -45 15 -100 31 -122 35 -22 3 -51 9 -65 11 -53 11 -1739 10
-1743 -1z"/>
</g>
</svg>
